<svg xmlns="http://www.w3.org/2000/svg" width="512" height="512" viewBox="0 0 512 512">
  <defs>
    <linearGradient id="lg" x1="40" y1="40" x2="472" y2="472" gradientUnits="userSpaceOnUse">
      <stop offset="0" stop-color="#7C4DFF"/>
      <stop offset="0.55" stop-color="#6C3AE0"/>
      <stop offset="1" stop-color="#F43F8A"/>
    </linearGradient>
    <linearGradient id="ll" x1="0" y1="0" x2="1" y2="0">
      <stop offset="0" stop-color="#FF6BA8"/>
      <stop offset="1" stop-color="#00D8FF"/>
    </linearGradient>
  </defs>
  <rect x="0" y="0" width="512" height="512" rx="115" fill="url(#lg)"/>
  <g transform="rotate(-45 256 256)">
    <!-- Daumenstütze -->
    <rect x="96" y="214" width="30" height="84" rx="10" fill="#FFFFFF"/>
    <!-- Kolbenstange -->
    <rect x="120" y="238" width="70" height="36" rx="8" fill="#FFFFFF"/>
    <!-- Zylinder -->
    <rect x="188" y="212" width="168" height="88" rx="30" fill="#FFFFFF"/>
    <!-- Flüssigkeit -->
    <rect x="206" y="228" width="86" height="56" rx="16" fill="url(#ll)"/>
    <!-- Nadel-Ansatz -->
    <rect x="356" y="238" width="22" height="36" rx="4" fill="#FFFFFF"/>
    <!-- Nadel -->
    <rect x="378" y="248" width="58" height="16" rx="8" fill="#FFFFFF"/>
    <!-- Skalenstriche -->
    <rect x="236" y="230" width="8" height="30" rx="4" fill="#6C3AE0"/>
    <rect x="266" y="230" width="8" height="30" rx="4" fill="#6C3AE0"/>
    <rect x="308" y="230" width="8" height="30" rx="4" fill="#C9C9DA"/>
    <rect x="332" y="230" width="8" height="30" rx="4" fill="#C9C9DA"/>
  </g>
</svg>
